<?xml version="1.0" encoding="UTF-8"?>
<svg width="700pt" height="700pt" version="1.1" viewBox="0 0 700 700" xmlns="http://www.w3.org/2000/svg" xmlns:xlink="http://www.w3.org/1999/xlink">
 <defs>
  <symbol id="v" overflow="visible">
   <path d="m18.031-1.0781c-0.92969 0.48047-1.8984 0.83984-2.9062 1.0781-1 0.25-2.0547 0.375-3.1562 0.375-3.2617 0-5.8516-0.91016-7.7656-2.7344-1.9062-1.8203-2.8594-4.3008-2.8594-7.4375 0-3.1328 0.95312-5.6133 2.8594-7.4375 1.9141-1.832 4.5039-2.75 7.7656-2.75 1.1016 0 2.1562 0.125 3.1562 0.375 1.0078 0.24219 1.9766 0.60547 2.9062 1.0938v4.0625c-0.9375-0.64453-1.8672-1.1133-2.7812-1.4062-0.90625-0.30078-1.8594-0.45312-2.8594-0.45312-1.8125 0-3.2344 0.57812-4.2656 1.7344s-1.5469 2.75-1.5469 4.7812 0.51562 3.625 1.5469 4.7812 2.4531 1.7344 4.2656 1.7344c1 0 1.9531-0.14844 2.8594-0.45312 0.91406-0.30078 1.8438-0.76953 2.7812-1.4062z"/>
  </symbol>
  <symbol id="d" overflow="visible">
   <path d="m13.203-10.719c-0.41797-0.1875-0.82812-0.32812-1.2344-0.42188s-0.82031-0.14062-1.2344-0.14062c-1.2109 0-2.1406 0.39062-2.7969 1.1719-0.64844 0.77344-0.96875 1.8828-0.96875 3.3281v6.7812h-4.7031v-14.719h4.7031v2.4219c0.60156-0.96875 1.2969-1.6719 2.0781-2.1094 0.78906-0.44531 1.7344-0.67188 2.8281-0.67188 0.15625 0 0.32031 0.011719 0.5 0.03125 0.1875 0.011719 0.45703 0.039063 0.8125 0.078125z"/>
  </symbol>
  <symbol id="b" overflow="visible">
   <path d="m16.953-7.4062v1.3438h-11c0.11328 1.1055 0.50781 1.9336 1.1875 2.4844 0.6875 0.55469 1.6445 0.82812 2.875 0.82812 0.98828 0 2.0039-0.14453 3.0469-0.4375 1.0391-0.28906 2.1094-0.73438 3.2031-1.3281v3.625c-1.1172 0.41797-2.2305 0.73047-3.3438 0.9375-1.1172 0.21875-2.2305 0.32812-3.3438 0.32812-2.6562 0-4.7266-0.67578-6.2031-2.0312-1.4805-1.3516-2.2188-3.25-2.2188-5.6875 0-2.4062 0.72266-4.2969 2.1719-5.6719 1.457-1.375 3.4531-2.0625 5.9844-2.0625 2.3203 0 4.1758 0.69922 5.5625 2.0938 1.3828 1.3984 2.0781 3.2578 2.0781 5.5781zm-4.8281-1.5625c0-0.89453-0.26172-1.6133-0.78125-2.1562-0.52344-0.55078-1.2031-0.82812-2.0469-0.82812-0.91797 0-1.6641 0.26172-2.2344 0.78125-0.5625 0.51172-0.91797 1.2461-1.0625 2.2031z"/>
  </symbol>
  <symbol id="l" overflow="visible">
   <path d="m8.8594-6.625c-0.98047 0-1.7188 0.16797-2.2188 0.5-0.49219 0.33594-0.73438 0.82422-0.73438 1.4688 0 0.59375 0.19531 1.0625 0.59375 1.4062 0.39453 0.33594 0.94531 0.5 1.6562 0.5 0.88281 0 1.6289-0.31641 2.2344-0.95312 0.61328-0.63281 0.92188-1.4297 0.92188-2.3906v-0.53125zm7.1875-1.7812v8.4062h-4.7344v-2.1875c-0.63672 0.89844-1.3516 1.5469-2.1406 1.9531-0.78125 0.40625-1.7422 0.60938-2.875 0.60938-1.5234 0-2.7617-0.44141-3.7188-1.3281-0.94922-0.88281-1.4219-2.0391-1.4219-3.4688 0-1.7188 0.59375-2.9766 1.7812-3.7812 1.1875-0.8125 3.0508-1.2188 5.5938-1.2188h2.7812v-0.375c0-0.73828-0.29688-1.2812-0.89062-1.625-0.58594-0.35156-1.5-0.53125-2.75-0.53125-1 0-1.9375 0.10547-2.8125 0.3125-0.86719 0.19922-1.6719 0.5-2.4219 0.90625v-3.5938c1.0078-0.25 2.0195-0.4375 3.0312-0.5625 1.0195-0.125 2.0391-0.1875 3.0625-0.1875 2.6562 0 4.5703 0.52734 5.75 1.5781 1.1758 1.043 1.7656 2.7422 1.7656 5.0938z"/>
  </symbol>
  <symbol id="a" overflow="visible">
   <path d="m7.4062-18.906v4.1875h4.8438v3.3594h-4.8438v6.25c0 0.67969 0.13281 1.1406 0.40625 1.3906 0.26953 0.24219 0.80469 0.35938 1.6094 0.35938h2.4219v3.3594h-4.0312c-1.8672 0-3.1875-0.38281-3.9688-1.1562-0.77344-0.78125-1.1562-2.0977-1.1562-3.9531v-6.25h-2.3281v-3.3594h2.3281v-4.1875z"/>
  </symbol>
  <symbol id="f" overflow="visible">
   <path d="m12.281-12.562v-7.8906h4.7344v20.453h-4.7344v-2.125c-0.64844 0.86719-1.3594 1.5-2.1406 1.9062-0.78125 0.39453-1.6875 0.59375-2.7188 0.59375-1.8125 0-3.3047-0.71875-4.4688-2.1562-1.168-1.4375-1.75-3.2891-1.75-5.5625 0-2.2695 0.58203-4.125 1.75-5.5625 1.1641-1.4453 2.6562-2.1719 4.4688-2.1719 1.0195 0 1.9219 0.20312 2.7031 0.60938 0.78906 0.40625 1.5078 1.043 2.1562 1.9062zm-3.1094 9.5312c1.0078 0 1.7812-0.36719 2.3125-1.1094 0.53125-0.73828 0.79688-1.8047 0.79688-3.2031 0-1.4062-0.26562-2.4727-0.79688-3.2031-0.53125-0.73828-1.3047-1.1094-2.3125-1.1094-1 0-1.7656 0.37109-2.2969 1.1094-0.52344 0.73047-0.78125 1.7969-0.78125 3.2031 0 1.3984 0.25781 2.4648 0.78125 3.2031 0.53125 0.74219 1.2969 1.1094 2.2969 1.1094z"/>
  </symbol>
  <symbol id="k" overflow="visible">
   <path d="m10.094-3.0312c1.0078 0 1.7812-0.36719 2.3125-1.1094 0.53125-0.73828 0.79688-1.8047 0.79688-3.2031 0-1.4062-0.26562-2.4727-0.79688-3.2031-0.53125-0.73828-1.3047-1.1094-2.3125-1.1094-1.0117 0-1.7891 0.37109-2.3281 1.1094-0.53125 0.74219-0.79688 1.8086-0.79688 3.2031 0 1.3867 0.26562 2.4531 0.79688 3.2031 0.53906 0.74219 1.3164 1.1094 2.3281 1.1094zm-3.125-9.5312c0.64453-0.86328 1.3633-1.5 2.1562-1.9062 0.78906-0.40625 1.6953-0.60938 2.7188-0.60938 1.8125 0 3.3008 0.72656 4.4688 2.1719 1.1641 1.4375 1.75 3.293 1.75 5.5625 0 2.2734-0.58594 4.125-1.75 5.5625-1.168 1.4375-2.6562 2.1562-4.4688 2.1562-1.0234 0-1.9297-0.20312-2.7188-0.60938-0.79297-0.40625-1.5117-1.0352-2.1562-1.8906v2.125h-4.7031v-20.453h4.7031z"/>
  </symbol>
  <symbol id="e" overflow="visible">
   <path d="m0.32812-14.719h4.7031l3.9531 9.9844 3.375-9.9844h4.7031l-6.1875 16.109c-0.625 1.6445-1.3555 2.7891-2.1875 3.4375-0.82422 0.65625-1.9141 0.98438-3.2656 0.98438h-2.7344v-3.0938h1.4844c0.78906 0 1.3672-0.13281 1.7344-0.39062 0.36328-0.25 0.64453-0.70312 0.84375-1.3594l0.14062-0.40625z"/>
  </symbol>
  <symbol id="j" overflow="visible">
   <path d="m14.375-3.5781h-7.9062l-1.25 3.5781h-5.0938l7.2812-19.625h6.0312l7.2656 19.625h-5.0938zm-6.6406-3.6406h5.375l-2.6875-7.8125z"/>
  </symbol>
  <symbol id="i" overflow="visible">
   <path d="m15.906-12.281c0.59375-0.90625 1.3008-1.5977 2.125-2.0781 0.82031-0.47656 1.7227-0.71875 2.7031-0.71875 1.6875 0 2.9727 0.52344 3.8594 1.5625 0.88281 1.043 1.3281 2.5586 1.3281 4.5469v8.9688h-4.7344v-7.6719c0.007812-0.11328 0.015625-0.23438 0.015625-0.35938 0.007813-0.125 0.015625-0.30078 0.015625-0.53125 0-1.0391-0.15625-1.7969-0.46875-2.2656-0.30469-0.46875-0.79688-0.70312-1.4844-0.70312-0.88672 0-1.5742 0.37109-2.0625 1.1094-0.49219 0.74219-0.74609 1.8047-0.76562 3.1875v7.2344h-4.7188v-7.6719c0-1.6328-0.14062-2.6875-0.42188-3.1562s-0.78125-0.70312-1.5-0.70312c-0.90625 0-1.6055 0.37109-2.0938 1.1094-0.49219 0.74219-0.73438 1.7969-0.73438 3.1719v7.25h-4.7344v-14.719h4.7344v2.1562c0.57031-0.83203 1.2344-1.457 1.9844-1.875 0.75-0.42578 1.5781-0.64062 2.4844-0.64062 1.0195 0 1.9141 0.24609 2.6875 0.73438 0.78125 0.49219 1.375 1.1797 1.7812 2.0625z"/>
  </symbol>
  <symbol id="h" overflow="visible">
   <path d="m17.062-8.9688v8.9688h-4.7344v-6.8281c0-1.2891-0.03125-2.1758-0.09375-2.6562-0.054687-0.48828-0.14844-0.84766-0.28125-1.0781-0.1875-0.30078-0.4375-0.53516-0.75-0.70312-0.3125-0.17578-0.67188-0.26562-1.0781-0.26562-0.98047 0-1.75 0.38281-2.3125 1.1406-0.5625 0.76172-0.84375 1.8086-0.84375 3.1406v7.25h-4.7031v-20.453h4.7031v7.8906c0.70703-0.86328 1.457-1.5 2.25-1.9062 0.80078-0.40625 1.6875-0.60938 2.6562-0.60938 1.6953 0 2.9844 0.52344 3.8594 1.5625 0.88281 1.043 1.3281 2.5586 1.3281 4.5469z"/>
  </symbol>
  <symbol id="u" overflow="visible">
   <path d="m13.766-14.266v3.5781c-1.0117-0.41406-1.9844-0.72656-2.9219-0.9375-0.9375-0.21875-1.8242-0.32812-2.6562-0.32812-0.89844 0-1.5625 0.11719-2 0.34375-0.42969 0.21875-0.64062 0.5625-0.64062 1.0312 0 0.375 0.16016 0.66797 0.48438 0.875 0.33203 0.19922 0.92578 0.34375 1.7812 0.4375l0.82812 0.10938c2.4062 0.3125 4.0234 0.82422 4.8594 1.5312 0.83203 0.69922 1.25 1.793 1.25 3.2812 0 1.5742-0.57812 2.7578-1.7344 3.5469-1.1562 0.78125-2.8867 1.1719-5.1875 1.1719-0.96875 0-1.9766-0.078125-3.0156-0.23438-1.0312-0.14453-2.1016-0.36719-3.2031-0.67188v-3.5781c0.94531 0.44922 1.9102 0.78906 2.8906 1.0156 0.98828 0.23047 1.9883 0.34375 3 0.34375 0.92578 0 1.6172-0.125 2.0781-0.375 0.46875-0.25781 0.70312-0.64062 0.70312-1.1406 0-0.41406-0.16406-0.72656-0.48438-0.9375-0.32422-0.20703-0.96094-0.36328-1.9062-0.46875l-0.82812-0.10938c-2.0938-0.25781-3.5625-0.74219-4.4062-1.4531-0.84375-0.71875-1.2656-1.8008-1.2656-3.25 0-1.5508 0.53125-2.7031 1.5938-3.4531 1.0703-0.75781 2.7109-1.1406 4.9219-1.1406 0.875 0 1.7852 0.070313 2.7344 0.20312 0.95703 0.125 2 0.32812 3.125 0.60938z"/>
  </symbol>
  <symbol id="t" overflow="visible">
   <path d="m16.125-19.016v4.1562c-1.0742-0.47656-2.125-0.83594-3.1562-1.0781-1.0234-0.25-1.9922-0.375-2.9062-0.375-1.2109 0-2.1055 0.16797-2.6875 0.5-0.57422 0.33594-0.85938 0.85156-0.85938 1.5469 0 0.53125 0.19141 0.94531 0.57812 1.2344 0.39453 0.29297 1.1094 0.54297 2.1406 0.75l2.1562 0.4375c2.1758 0.4375 3.7227 1.1055 4.6406 2 0.92578 0.89844 1.3906 2.168 1.3906 3.8125 0 2.168-0.64844 3.7773-1.9375 4.8281-1.2812 1.0547-3.2422 1.5781-5.875 1.5781-1.2422 0-2.4922-0.12109-3.75-0.35938-1.25-0.22656-2.5-0.57812-3.75-1.0469v-4.2656c1.25 0.66797 2.457 1.1719 3.625 1.5156 1.1758 0.33594 2.3047 0.5 3.3906 0.5 1.1016 0 1.9453-0.17969 2.5312-0.54688 0.59375-0.375 0.89062-0.90625 0.89062-1.5938 0-0.61328-0.20312-1.082-0.60938-1.4062-0.39844-0.33203-1.1875-0.63281-2.375-0.90625l-1.9688-0.42188c-1.9609-0.42578-3.3906-1.0977-4.2969-2.0156-0.90625-0.92578-1.3594-2.1641-1.3594-3.7188 0-1.957 0.62891-3.4609 1.8906-4.5156 1.2578-1.0508 3.0703-1.5781 5.4375-1.5781 1.082 0 2.1914 0.085937 3.3281 0.25 1.1328 0.15625 2.3125 0.39844 3.5312 0.71875z"/>
  </symbol>
  <symbol id="g" overflow="visible">
   <path d="m2.1094-5.7344v-8.9844h4.7188v1.4688c0 0.80469-0.007813 1.8086-0.015625 3.0156v2.4062c0 1.1797 0.03125 2.0273 0.09375 2.5469 0.0625 0.52344 0.16406 0.90234 0.3125 1.1406 0.1875 0.30469 0.4375 0.53906 0.75 0.70312 0.3125 0.16797 0.67188 0.25 1.0781 0.25 0.97656 0 1.75-0.375 2.3125-1.125s0.84375-1.7969 0.84375-3.1406v-7.2656h4.7031v14.719h-4.7031v-2.125c-0.71094 0.85547-1.4648 1.4844-2.2656 1.8906-0.79297 0.40625-1.6641 0.60938-2.6094 0.60938-1.7109 0-3.0078-0.51953-3.8906-1.5625-0.88672-1.0391-1.3281-2.5547-1.3281-4.5469z"/>
  </symbol>
  <symbol id="s" overflow="visible">
   <path d="m2.2656-14.719h4.7031v14.719h-4.7031zm0-5.7344h4.7031v3.8438h-4.7031z"/>
  </symbol>
  <symbol id="c" overflow="visible">
   <path d="m9.2656-11.719c-1.043 0-1.8398 0.375-2.3906 1.125-0.54297 0.75-0.8125 1.8359-0.8125 3.25 0 1.4062 0.26953 2.4844 0.8125 3.2344 0.55078 0.75 1.3477 1.125 2.3906 1.125 1.0312 0 1.8164-0.375 2.3594-1.125 0.53906-0.75 0.8125-1.8281 0.8125-3.2344 0-1.4141-0.27344-2.5-0.8125-3.25-0.54297-0.75-1.3281-1.125-2.3594-1.125zm0-3.3594c2.5312 0 4.5078 0.6875 5.9375 2.0625 1.4258 1.3672 2.1406 3.2578 2.1406 5.6719 0 2.418-0.71484 4.3086-2.1406 5.6719-1.4297 1.3672-3.4062 2.0469-5.9375 2.0469-2.543 0-4.5312-0.67969-5.9688-2.0469-1.4297-1.3633-2.1406-3.2539-2.1406-5.6719 0-2.4141 0.71094-4.3047 2.1406-5.6719 1.4375-1.375 3.4258-2.0625 5.9688-2.0625z"/>
  </symbol>
  <symbol id="r" overflow="visible">
   <path d="m11.953-20.453v3.0938h-2.6094c-0.66797 0-1.1328 0.12109-1.3906 0.35938-0.26172 0.24219-0.39062 0.65625-0.39062 1.25v1.0312h4.0156v3.3594h-4.0156v11.359h-4.7031v-11.359h-2.3438v-3.3594h2.3438v-1.0312c0-1.6016 0.44141-2.7852 1.3281-3.5469 0.89453-0.76953 2.2812-1.1562 4.1562-1.1562z"/>
  </symbol>
  <symbol id="q" overflow="visible">
   <path d="m2.4688-19.625h5.6562l7.1406 13.453v-13.453h4.7969v19.625h-5.6562l-7.1406-13.469v13.469h-4.7969z"/>
  </symbol>
  <symbol id="p" overflow="visible">
   <path d="m17.062-8.9688v8.9688h-4.7344v-6.8594c0-1.2695-0.03125-2.1445-0.09375-2.625-0.054687-0.48828-0.14844-0.84766-0.28125-1.0781-0.1875-0.30078-0.4375-0.53516-0.75-0.70312-0.3125-0.17578-0.67188-0.26562-1.0781-0.26562-0.98047 0-1.75 0.38281-2.3125 1.1406-0.5625 0.76172-0.84375 1.8086-0.84375 3.1406v7.25h-4.7031v-14.719h4.7031v2.1562c0.70703-0.86328 1.457-1.5 2.25-1.9062 0.80078-0.40625 1.6875-0.60938 2.6562-0.60938 1.6953 0 2.9844 0.52344 3.8594 1.5625 0.88281 1.043 1.3281 2.5586 1.3281 4.5469z"/>
  </symbol>
  <symbol id="o" overflow="visible">
   <path d="m2.4688-19.625h8.4062c2.5 0 4.4141 0.55859 5.75 1.6719 1.332 1.1055 2 2.6836 2 4.7344 0 2.0547-0.66797 3.6367-2 4.75-1.3359 1.1055-3.25 1.6562-5.75 1.6562h-3.3438v6.8125h-5.0625zm5.0625 3.6719v5.4688h2.7969c0.97656 0 1.7344-0.23438 2.2656-0.70312 0.53906-0.47656 0.8125-1.1562 0.8125-2.0312s-0.27344-1.5469-0.8125-2.0156c-0.53125-0.47656-1.2891-0.71875-2.2656-0.71875z"/>
  </symbol>
  <symbol id="n" overflow="visible">
   <path d="m2.2656-14.719h4.7031v14.453c0 1.9688-0.47656 3.4727-1.4219 4.5156-0.94922 1.0391-2.3203 1.5625-4.1094 1.5625h-2.3281v-3.0938h0.8125c0.89453 0 1.5078-0.20312 1.8438-0.60938 0.33203-0.39844 0.5-1.1875 0.5-2.375zm0-5.7344h4.7031v3.8438h-4.7031z"/>
  </symbol>
  <symbol id="m" overflow="visible">
   <path d="m14.156-14.266v3.8438c-0.63672-0.4375-1.2773-0.75781-1.9219-0.96875-0.64844-0.21875-1.3125-0.32812-2-0.32812-1.3242 0-2.3516 0.38672-3.0781 1.1562-0.73047 0.77344-1.0938 1.8438-1.0938 3.2188s0.36328 2.4492 1.0938 3.2188c0.72656 0.76172 1.7539 1.1406 3.0781 1.1406 0.72656 0 1.4219-0.10938 2.0781-0.32812 0.66406-0.21875 1.2812-0.53906 1.8438-0.96875v3.8438c-0.74219 0.27344-1.4922 0.47266-2.25 0.60938-0.75 0.13281-1.5078 0.20312-2.2656 0.20312-2.6562 0-4.7344-0.67578-6.2344-2.0312-1.5-1.3633-2.25-3.2578-2.25-5.6875 0-2.4258 0.75-4.3203 2.25-5.6875 1.5-1.3633 3.5781-2.0469 6.2344-2.0469 0.76953 0 1.5312 0.070313 2.2812 0.20312 0.75 0.13672 1.4922 0.33984 2.2344 0.60938z"/>
  </symbol>
 </defs>
 <g>
  <path d="m689.27 455.05c0.046875-0.65234-0.039062-1.293-0.22656-1.918-0.03125-0.10156-0.058594-0.19922-0.097657-0.29688-0.19531-0.54297-0.44531-1.0703-0.82031-1.5352-10.262-12.918-10.672-25.488-11.242-42.879-0.83594-25.434-1.875-57.078-33.941-105.42-41.922-63.223-122.82-63.457-201.05-63.676-25.488-0.070312-49.566-0.14062-72.27-2.3047-82.523-7.8672-93.41-77.164-94.586-87.613 19.914-46.406 23.355-115.66-1.3203-128.59-30.852-16.219-87.176 48.414-101.5 65.742-21.594-9.4023-53.395-6.5977-65.016-5.1484-23.734-61.832-46.035-88.023-68.262-80.023-3.5859 1.2891-6.7109 3.0117-9.4414 5.1836-0.15625 0.11719-0.28516 0.26562-0.44141 0.38672-0.074219 0.070312-0.17188 0.097656-0.24609 0.17188-0.023437 0.027344-0.03125 0.0625-0.054687 0.089844-40.293 32.133-1.0703 145.51 3.2266 157.48-0.34375 5.9883-1.5312 34.27 5.2891 51.309 1.8086 4.4766 2.6875 8.8047 2.75 13.199-2.6914 5.6523-3.6602 12.203-2.7617 19.121-0.042969 2.332-1.5312 105.87 23.148 149.72 23.941 42.574 58.441 104.79 58.781 105.41 0.86719 1.5625 2.4453 2.5859 4.2148 2.75 1.7969 0.16797 3.5117-0.55859 4.6484-1.9336l14.367-17.414c4.3125 6.7617 12.602 16.328 27.172 22.703-4.8086 2.4844-7.9141 7.4141-7.9141 13.582 0 6.1445 2.957 12.266 8.1133 16.797 4.0273 3.543 11.324 7.7578 23.199 7.7578h39.703c7.7812 5.2344 21.797 6.9141 35.66 6.9141 15.645 0 30.988-2.0781 36.621-3.3906 6.3164-1.4648 9.7539-7.7383 10.301-18.566 7.2852-4.6211 13.004-11.164 16.543-18.879 8.2344 2.3359 24.855 6.5039 38.836 6.5039 4.4141 0 8.5664-0.42188 12.094-1.4414 2.7344-0.79297 4.3789-3.5742 3.7539-6.3477l-1.2695-5.6797c12.914 3.5039 37.312 8.7891 57.371 5.4375 2.5938-0.42969 4.5-2.6836 4.5-5.3086v-19.672c7.1836 2.8633 18.199 6.3047 28.48 5.832 2.8633-0.14063 5.1211-2.5039 5.1211-5.3789v-7.6094c5.4297 3.4375 13.09 7.957 21.809 12.262-8.1992 4.7539-17.18 13.047-17.18 26.043 0 4.5195 1.8242 8.6094 5.2734 11.832 8.918 8.3203 27.938 9.6289 38.992 9.6289 1.3672 0 2.5508-0.023437 3.6445-0.054687 4.9688 16.164 19.266 20.188 34.758 20.188 8.3633 0 17.059-1.1562 24.809-2.1914 6.6484-0.88672 12.934-1.7305 18.238-1.8633 6.1211-0.15625 11.285-2.707 14.926-7.3828 10.258-13.16 6.0625-40.434 4.3359-49.352 8.1914-11.309 11.938-30.922 13.504-42.504 19.215 10.566 40.816 3.4023 41.855 3.043 0.039063-0.011719 0.058594-0.046875 0.097656-0.058594 0.72656-0.26953 1.3672-0.6875 1.918-1.2266 0.14453-0.14453 0.23828-0.32422 0.36719-0.48828 0.35156-0.4375 0.63672-0.91016 0.83984-1.4492 0.046876-0.12891 0.16797-0.22266 0.21094-0.35938 0.089844-0.31641 0.125-0.63672 0.15625-0.95703 0.003906-0.039062 0.027344-0.070312 0.03125-0.11328-0.003906-0.042969-0.015625-0.054688-0.011719-0.070312zm-512.38 76.797c-2.793-2.4492-4.4531-5.7031-4.4531-8.7031 0-3.0352 1.4766-4.5781 4.3828-4.5781 5.6484 0 10.484-1.3633 14.426-3.9141 0.097656-0.042969 0.17188-0.11328 0.26953-0.16016 0.22266-0.14453 0.47266-0.25391 0.6875-0.41016 0.12891-0.089844 0.21094-0.19531 0.33984-0.28906 0.19531-0.16016 0.39844-0.30078 0.57031-0.48438 3.9844-3.1719 5.9883-7 6.8594-9.4727 1.3359-0.75391 3.3125-1.5547 4.4258-0.90625 5.3477 3.0742 23.711 3.2031 34.285 3.0039 0.65625 1.6094 1.4219 3.9023 1.9766 6.7383-9.1875 3.8984-14.438 12.301-14.562 23.695-0.003906 0.19531 0.046875 0.37109 0.046875 0.56641h-33.172c-8.5117 0-13.445-2.7617-16.082-5.0859zm125.63 8.8867c-14.621 3.4141-55.598 5.5469-64.816-2.6289-0.85547-0.70703-0.84375-1.1836-0.83594-1.5469 0.085937-8.2773 3.7695-13.305 10.973-14.953 6.7539-1.582 16.391-0.22656 27.91 3.9219 2.8125 1 5.8867-0.44531 6.8867-3.2422 1.0117-2.8008-0.44141-5.8867-3.2422-6.8945-10.898-3.9258-20.355-5.5938-28.242-5.0742-1.043-5.1758-2.6719-9.0469-3.6719-11.055 0.45703-6.7891 0.60938-13.461 0.48047-19.926 6.7461-6.5625 26.305-21.836 35.395-16.102 8.1523 5.1875 21.199 42.324 21.25 66.32-0.003907 7.9648-1.6016 10.836-2.0859 11.18zm12.184-21.395c-2.6875-23.648-13.32-57.398-25.59-65.207-7.2852-4.6055-16.797-3.7852-28.215 2.375 12.777-13.773 14.77-19.352 13.496-24.215-1.4219-5.4375-6.8047-6.8672-11.125-8.0078-6.9258-1.832-9.543-3.0742-9.543-8.8906 0-22.605-21.25-27.281-33.953-30.07-2.1641-0.47266-4.8984-1.0781-6.668-1.6406 2.875-5.1758 14.469-16.316 22.531-22.875 8.2656-2.6289 18.578-6.2734 23.086-9.3711 5.2773-3.6523 9.3203-7.75 12.891-11.367 3.9219-3.9727 7.2969-7.4023 9.9609-7.6211 2.9609-0.23828 5.168-2.8359 4.9336-5.8047-0.24219-2.9688-2.8555-5.1953-5.8047-4.9336-6.6445 0.53906-11.555 5.5195-16.758 10.793-3.2305 3.2812-6.8945 6.9961-11.328 10.062-2.1016 1.4414-8.7773 4.3789-21.234 8.293-0.054687 0.015625-0.089843 0.066407-0.15234 0.082031-16.113 5.0508-33.215 9.1016-42.891 10.645 3.2148-6.7812 4.9375-14.699 5.7227-19.262 16.07-5.5469 31.875-22.652 32.25-23.105 32.715-29.617 27.059-79.113 12.934-103.23-6.6133-11.293-14.824-16.27-22.605-13.672-8.207 2.7266-22.152 1.3789-38.254-3.6875-0.15234-0.046875-0.30078-0.015625-0.45312-0.046875 0.011718-0.24609 0.074218-0.48438 0.074218-0.73828 0-8.1328-6.4609-14.699-14.484-14.699-7.9688 0-14.484 6.5703-14.484 14.699 0 8.1328 6.5156 14.754 14.484 14.754 4.0391 0 7.6797-1.707 10.301-4.4258 0.42188 0.28125 0.82812 0.57812 1.3359 0.73828 13.074 4.1094 31.492 8.0781 44.895 3.6289 1.9883-0.65234 5.9844 2.1914 9.9062 8.8945 10.668 18.223 18.434 63.277-11.227 90.164-0.16016 0.18359-16.73 18.086-30.668 21.277-2.207 0.5-3.8594 2.3359-4.1445 4.582-0.62109 4.9375-3.3555 18.977-8.4492 24.512-2.6445 2.8359-2.293 5.9141-1.0781 7.8477 1.1914 1.8828 4.1992 2.8203 9.0352 2.8203 6.3906 0 16.031-1.6836 28.734-4.9766-6.5977 7.0547-11.523 14.363-10.168 19.547 1.4609 5.5586 7.6484 6.9141 15.477 8.6367 14.441 3.1719 25.488 6.6289 25.488 19.551 0 14.656 11.422 17.684 17.559 19.305 0.94141 0.24609 2.207 0.58203 3.1016 0.89844-0.95703 2.2578-4.6758 7.7383-17.516 20.758-3.1445-19.637-8.9023-28.379-9.1875-28.797-1.6602-2.4453-4.9766-3.0742-7.4258-1.4375-2.4609 1.6367-3.1289 4.9688-1.5078 7.4492 0.066406 0.10156 6.5977 10.355 8.7109 34.352 0 0.11719 0.027344 0.22656 0.03125 0.34375 0 0.011719 0 0.023437 0.003907 0.03125 0.21094 2.8359 0.35938 5.8359 0.46875 9.0352 0.18359 5.7734 0.11328 11.762-0.21094 17.863-11.988 0.13281-24.652-0.41016-27.203-1.5898-6.7539-3.8867-14.406-0.11719-17.852 2.7188-0.94922 0.78125-1.6172 1.9453-1.8672 3.1406-0.023437 0.11328-0.58203 2.3164-2.5312 4.4062-30.609-6.1055-38.668-27.551-38.996-28.461-0.62891-1.8477-2.2148-3.2031-4.1289-3.5469-1.9062-0.33203-3.8711 0.36719-5.1172 1.875l-14.52 17.598c-9.6875-17.453-35.738-64.34-54.984-98.555-16.531-29.355-20.578-88.605-21.523-121.35 1.043 1.0078 2.1211 1.9492 3.2617 2.7422 7.957 5.4883 16.273 10.07 24.691 13.602 0.023438 0.011718 0.042969 0.015624 0.070312 0.027343 0.125 0.046875 0.24219 0.097657 0.36719 0.14062 14.395 6.0781 28.762 9.1719 42.836 9.1719 3.1992 0 6.3867-0.18359 9.5547-0.5h0.003906 0.003907c0.11328 0 0.23047-0.011719 0.35156-0.023437 0.054688-0.003906 0.11328 0 0.16797-0.011719h0.003906c0.027344 0 0.046875 0 0.074219-0.003906 11.738-1.3047 23.027-4.7383 33.547-10.211 2.6367-1.375 3.668-4.6211 2.293-7.2656-1.3672-2.6328-4.6133-3.668-7.2578-2.293-3.5586 1.8516-7.2422 3.3555-10.984 4.6758 6.332-11.078 7.4141-23.711 7.4727-24.527 0.22656-2.9609-1.9922-5.543-4.9531-5.7734-3.0312-0.22656-5.5508 1.9922-5.7852 4.9492-0.023437 0.24219-2.0508 23.762-16.227 29.785-14.496 1.4258-29.559-0.95703-44.77-7.0391-0.55859-3.5391-0.53125-7.7344-0.38281-10.566 7.4688-5.5664 20.062-16.59 17.145-25.781-2.6602-8.3828-14.797-8.3828-18.781-8.3828-4.1094 0-16.598 0-20.176 8.4492-3.8438 9.0859 6.0156 19.504 11.078 24.727-0.097656 1.625-0.16797 3.9219-0.097656 6.4414-4.793-2.4844-9.5195-5.2773-14.109-8.4375-4.8125-3.3555-8.6211-10.316-9.7031-17.738 0-0.003907-0.003907-0.003907-0.003907-0.011719-0.003906-0.023438 0.003907-0.042969 0.003907-0.066407-0.57031-3.8242-0.65234-9.4727 2.1914-14.656 0.074218-0.14062 0.14453-0.28125 0.21094-0.42969 2.0312-3.5547 5.1797-6.332 9.3633-8.2461 8.8672-4.043 16.586-13.871 21.5-21.398 0.55469-0.84375 0.74219-1.7891 0.78125-2.7344 5.5312-1.0352 9.7305-5.918 9.7305-11.84 0-6.6758-5.332-12.117-11.902-12.117-6.5703 0-11.902 5.4375-11.902 12.117 0 3.625 1.5742 6.8242 4.0391 9.0234-5.6914 8.6445-11.77 14.891-16.727 17.152-2.2305 1.0195-4.1953 2.2773-6.043 3.6406-0.53125-2.0156-1.1523-4.0273-1.9531-6.0273-5.9648-14.91-4.8047-41.805-4.5234-46.812 1.0703-2.4375 4.9062-10.727 10.824-18.598 0.10938-0.13281 0.19922-0.28125 0.28906-0.42969 5.8906-7.6133 11.793-12.363 17.566-14.137 2.8359-0.87891 4.4375-3.8867 3.5664-6.7305-0.87109-2.8359-3.8945-4.4375-6.7305-3.5664-4.6133 1.418-9.1523 4.0859-13.582 7.8945l0.023438-11.465c17.152 0.78516 28.52-7.1523 33.996-12.379 4.4375-4.2656 5.6914-10.938 3.1055-16.625-17.551-38.445-40.367-65.875-50.508-77.027 0.4375-0.19141 0.83594-0.41406 1.2969-0.58203 14.996-5.4023 35.48 22.879 56.078 77.711 0.90625 2.4062 3.3594 3.8398 5.918 3.418 0.4375-0.070312 44.02-7.0156 66.539 5.332 2.293 1.2539 5.1602 0.68359 6.7969-1.3555 24.828-31.031 71.457-76.453 90.816-66.281 17.48 9.1602 15.254 72.059-4.1016 116.05-8.6445 19.645-19.613 32.691-30.867 36.734-2.8008 1.0078-4.2539 4.0859-3.2539 6.8867 0.78516 2.1953 2.8594 3.5703 5.0664 3.5703 0.60156 0 1.2227-0.10156 1.8203-0.32422 11.059-3.9727 21.234-13.766 29.906-28.504 7.1406 26.129 30.035 76.176 101.3 82.969 23.199 2.2148 48.648 2.2812 73.262 2.3516 75.398 0.21484 153.37 0.4375 192.11 58.855 30.375 45.793 31.355 75.75 32.148 99.82 0.4375 13.453 0.83594 25.531 6.2266 37.332-6.7109-2.7578-14.422-7.8242-18.051-17.066-9.6484-24.582-37.047-25.574-38.207-25.602-2.0898-0.085938-4.1875 1.2109-5.0664 3.2109-4.4492 10.09-3.0625 23.641-1.6602 31.512-33.406 1.0664-54.375-16.348-54.586-16.52-1.7188-1.4688-4.168-1.7188-6.1445-0.60156-1.9727 1.1094-3.0352 3.3281-2.6758 5.5625l2.2188 13.598c-19.75-4.8359-33.633-18.934-42.082-30.555-9.2461-12.723-13.574-24.508-13.617-24.625-1.0117-2.793-4.1133-4.2344-6.8984-3.2305-2.793 1.0117-4.2383 4.0938-3.2305 6.8867 0.17188 0.48047 3.957 10.758 12.062 22.977-39.789 28.977-101.53 24.16-102.18 24.109-1.8789-0.15625-3.8242 0.73828-4.9102 2.3516-1.0938 1.6172-1.2266 3.6992-0.34375 5.4375l6.1836 12.273c-13.34 1.1797-34.785-0.15625-44.73-1.0195-9.5469-7.5508-21.809-34.531-25.852-44.645-1.1055-2.7695-4.2383-4.0938-7-3.0039-2.7617 1.1055-4.1094 4.2383-3.0039 7 1.2383 3.1133 9.9414 24.457 20.176 38.977l-10.012-1.0938c-2.0781-0.22656-4.1211 0.78516-5.1953 2.5898-1.082 1.7969-1.0117 4.0781 0.17188 5.8086 0.13281 0.19922 13.41 20.047 5.7734 45.105 0 0.003907-0.003907 0.015626-0.011719 0.023438-1.7148 5.3477-4.8047 9.9805-8.7656 13.781zm183.24 3.0195c-1.2812-1.1953-1.8516-2.4141-1.8516-3.9531 0-12.902 15.73-18.918 19.562-20.211 12.746 5.1367 24.031 7.8125 33.961 7.6641 11.883-0.074219 14.609 2.0898 14.785 2.082h0.003906c-0.015625 0.34375-0.31641 0.99609-0.73828 1.6602-14.164 1.207-23.434 4.7422-28.297 10.793-2.0195 2.5156-3.1484 5.4766-3.5117 8.6797-11.762 0.21094-28.113-1.3047-33.914-6.7148zm145.08-79.324c-1.5352-1.3633-3.7031-1.7383-5.6094-0.96484-1.9023 0.77734-3.1992 2.5625-3.3398 4.6055-0.69531 9.6914-4.4844 37.145-13.609 47.625-1.125 1.293-1.5742 3.043-1.1953 4.7109 1.8359 8.1836 5.4492 33.629-1.793 42.918-1.668 2.1367-3.8008 3.168-6.7109 3.2422-5.8867 0.15234-12.445 1.0234-19.391 1.9531-27.301 3.6367-45.453 4.6484-48.676-13.812-0.003906-0.03125-0.14062-0.66797-0.14453-0.69922-0.45312-2.9766 0.48047-4.5508 1.2227-5.4727 1.7383-2.1602 7.0391-5.9453 22.992-6.9688 1.3086-0.085937 2.543-0.64453 3.4688-1.5742 0.75-0.75 7.1719-7.4961 4.1641-14.641-3.4375-8.1406-15.98-8.9766-24.883-8.8672-8.9297 0.15625-19.332-2.4336-31.48-7.5-0.03125-0.015625-0.070312-0.003906-0.10156-0.023438-20.922-8.6367-39.293-21.762-39.477-21.891-1.6484-1.1797-3.8125-1.3359-5.6016-0.42188-1.7969 0.92188-2.9297 2.7734-2.9297 4.793v12.148c-12.559-1.1797-25.555-7.9492-25.703-8.0234-1.6758-0.87891-3.6875-0.82422-5.293 0.15625-1.6172 0.97656-2.6016 2.7266-2.6016 4.6094v23.27c-24.98 2.3164-56.309-8.168-56.645-8.2812-1.8203-0.625-3.8828-0.21484-5.3242 1.0938-1.4531 1.3047-2.082 3.2852-1.6602 5.1797l2.0586 9.1602c-11.66 0.98047-29.363-2.9922-39.645-5.8516 3.7266-16.633 0.085938-30.867-3.5664-39.672l14.27 1.5547c0.015625 0 0.03125-0.003906 0.046875-0.003906 0.011719 0 0.023438 0.011719 0.039063 0.011719 1.082 0.10156 18.133 1.668 34.246 1.668 8.6055 0 16.945-0.44531 22.453-1.7969 1.5938-0.39453 2.9258-1.4844 3.6094-2.9766 0.6875-1.4922 0.65625-3.2148-0.085938-4.6797l-5.3945-10.707c19.691 0.30859 66.266-1.9609 100.06-26.645 14.812 18.465 33.121 29.535 53.309 31.934 1.7031 0.18359 3.3555-0.40234 4.5273-1.625 1.168-1.2227 1.6914-2.918 1.4258-4.5938l-1.4688-9.0039c11.477 6.3125 31.555 14.109 57.914 11.512 1.5781-0.15625 3.0117-1 3.9023-2.3086 0.89844-1.3086 1.1797-2.9453 0.75781-4.4766-1.2852-4.7227-3.6992-17.645-1.4609-27.047 6.5039 1.1094 19.348 4.9648 24.594 18.324 3.1289 7.9805 8.2891 13.59 13.844 17.578-5.1602-1.1484-10.449-3.3672-15.117-7.5195z"/>
  <path d="m273.6 61.426c-0.57031-10.969-3.4258-17.926-8.707-21.277-20.879-13.168-67.391 42.688-81.145 60.133-0.58594 0.74219-0.96875 1.625-1.0977 2.5625-1.3516 9.3594 1.0664 28.48 19.891 33.844 16.27 4.6484 19.645 5.6094 20.105 39.48 0.027344 2.0508 1.2227 3.9102 3.0703 4.793 0.73828 0.35156 1.5312 0.52344 2.3164 0.52344 1.1953 0 2.3711-0.39453 3.3438-1.1641 23.09-18.289 44.031-84.59 42.223-118.89z"/>
  <path d="m88.133 132.88c-6.6992-0.66406-14.324 3.4961-18.816 7.9492-4.2969 4.2539-6.4141 9.1719-5.9844 13.852 0.59766 6.3984 8.2891 10.871 12.816 12.965 2.375 1.0977 8.7109 3.7461 14.582 3.7461 2.6172 0 5.1367-0.52734 7.1797-1.9492 4.6211-3.1602 5.9453-9.6992 3.7109-18.418-0.17969-0.69922-4.5117-17.25-13.488-18.145z"/>
  <path d="m156.85 143.64c-5.4336-3.5547-16.164-8.4258-21.883-4.0938l-0.015625 0.015625c-5.5195 4.2109-8.3047 12.562-8.6172 18.973-0.28516 5.8945 1.4102 10.859 4.7891 13.988 2.1602 1.9883 5.1094 2.6914 8.2109 2.6914 3.1602 0 6.4844-0.73047 9.3008-1.5977 2.6562-0.8125 16.004-5.3047 17.977-13.66 1.3164-5.5352-2.1445-11.332-9.7617-16.316z"/>
  <use x="10.71875" y="640.773438" xlink:href="#v"/>
  <use x="30.476563" y="640.773438" xlink:href="#d"/>
  <use x="43.753906" y="640.773438" xlink:href="#b"/>
  <use x="62.015625" y="640.773438" xlink:href="#l"/>
  <use x="80.183594" y="640.773438" xlink:href="#a"/>
  <use x="93.054688" y="640.773438" xlink:href="#b"/>
  <use x="111.316406" y="640.773438" xlink:href="#f"/>
  <use x="139.960938" y="640.773438" xlink:href="#k"/>
  <use x="159.234375" y="640.773438" xlink:href="#e"/>
  <use x="186.160156" y="640.773438" xlink:href="#j"/>
  <use x="206.996094" y="640.773438" xlink:href="#i"/>
  <use x="235.050781" y="640.773438" xlink:href="#b"/>
  <use x="253.3125" y="640.773438" xlink:href="#a"/>
  <use x="266.183594" y="640.773438" xlink:href="#h"/>
  <use x="285.351563" y="640.773438" xlink:href="#e"/>
  <use x="302.902344" y="640.773438" xlink:href="#u"/>
  <use x="318.929688" y="640.773438" xlink:href="#a"/>
  <use x="341.171875" y="640.773438" xlink:href="#t"/>
  <use x="360.5625" y="640.773438" xlink:href="#a"/>
  <use x="373.433594" y="640.773438" xlink:href="#g"/>
  <use x="392.601563" y="640.773438" xlink:href="#f"/>
  <use x="411.875" y="640.773438" xlink:href="#s"/>
  <use x="421.105469" y="640.773438" xlink:href="#c"/>
  <use x="10.71875" y="667.699219" xlink:href="#r"/>
  <use x="22.429688" y="667.699219" xlink:href="#d"/>
  <use x="35.710938" y="667.699219" xlink:href="#c"/>
  <use x="54.207031" y="667.699219" xlink:href="#i"/>
  <use x="91.636719" y="667.699219" xlink:href="#a"/>
  <use x="104.507812" y="667.699219" xlink:href="#h"/>
  <use x="123.675781" y="667.699219" xlink:href="#b"/>
  <use x="151.308594" y="667.699219" xlink:href="#q"/>
  <use x="173.839844" y="667.699219" xlink:href="#c"/>
  <use x="192.339844" y="667.699219" xlink:href="#g"/>
  <use x="211.507812" y="667.699219" xlink:href="#p"/>
  <use x="240.046875" y="667.699219" xlink:href="#o"/>
  <use x="259.78125" y="667.699219" xlink:href="#d"/>
  <use x="273.058594" y="667.699219" xlink:href="#c"/>
  <use x="291.558594" y="667.699219" xlink:href="#n"/>
  <use x="300.785156" y="667.699219" xlink:href="#b"/>
  <use x="319.046875" y="667.699219" xlink:href="#m"/>
  <use x="335.007813" y="667.699219" xlink:href="#a"/>
 </g>
</svg>
